<?xml version="1.0" encoding="UTF-8"?>
<svg xmlns="http://www.w3.org/2000/svg" viewBox="0 0 1024 1024" width="1024" height="1024">
  <defs>
    <linearGradient id="g-chip" x1="0" y1="0" x2="0" y2="1">
      <stop offset="0%" stop-color="#EAF0F8"/>
      <stop offset="100%" stop-color="#D6DFEA"/>
    </linearGradient>
    <linearGradient id="g-chip-selected" x1="0" y1="0" x2="0" y2="1">
      <stop offset="0%" stop-color="#E1ECFA"/>
      <stop offset="100%" stop-color="#C5D6EC"/>
    </linearGradient>
  </defs>

  <!-- Parents (upstream, top row) -->
  <g>
    <rect x="137" y="185" width="170" height="55" rx="27.5" fill="url(#g-chip)" stroke="#A8B4C5" stroke-width="1"/>
    <rect x="170" y="206" width="74"  height="8" rx="4" fill="#FFFFFF" opacity="0.95"/>
    <rect x="180" y="218" width="50"  height="6" rx="3" fill="#FFFFFF" opacity="0.78"/>
  </g>
  <g>
    <rect x="427" y="185" width="170" height="55" rx="27.5" fill="url(#g-chip)" stroke="#A8B4C5" stroke-width="1"/>
    <rect x="460" y="206" width="74"  height="8" rx="4" fill="#FFFFFF" opacity="0.95"/>
    <rect x="470" y="218" width="50"  height="6" rx="3" fill="#FFFFFF" opacity="0.78"/>
  </g>
  <g>
    <rect x="717" y="185" width="170" height="55" rx="27.5" fill="url(#g-chip)" stroke="#A8B4C5" stroke-width="1"/>
    <rect x="750" y="206" width="74"  height="8" rx="4" fill="#FFFFFF" opacity="0.95"/>
    <rect x="760" y="218" width="50"  height="6" rx="3" fill="#FFFFFF" opacity="0.78"/>
  </g>

  <!-- Selected (center) -->
  <g>
    <rect x="362" y="467" width="300" height="90" rx="45" fill="url(#g-chip-selected)" stroke="#8DA0BA" stroke-width="1.5"/>
    <rect x="412" y="498" width="155" height="12" rx="6" fill="#FFFFFF" opacity="0.97"/>
    <rect x="430" y="518" width="115" height="9"  rx="4.5" fill="#FFFFFF" opacity="0.82"/>
  </g>

  <!-- Children (downstream, bottom row) -->
  <g>
    <rect x="137" y="784" width="170" height="55" rx="27.5" fill="url(#g-chip)" stroke="#A8B4C5" stroke-width="1"/>
    <rect x="170" y="805" width="74"  height="8" rx="4" fill="#FFFFFF" opacity="0.95"/>
    <rect x="180" y="817" width="50"  height="6" rx="3" fill="#FFFFFF" opacity="0.78"/>
  </g>
  <g>
    <rect x="427" y="784" width="170" height="55" rx="27.5" fill="url(#g-chip)" stroke="#A8B4C5" stroke-width="1"/>
    <rect x="460" y="805" width="74"  height="8" rx="4" fill="#FFFFFF" opacity="0.95"/>
    <rect x="470" y="817" width="50"  height="6" rx="3" fill="#FFFFFF" opacity="0.78"/>
  </g>
  <g>
    <rect x="717" y="784" width="170" height="55" rx="27.5" fill="url(#g-chip)" stroke="#A8B4C5" stroke-width="1"/>
    <rect x="750" y="805" width="74"  height="8" rx="4" fill="#FFFFFF" opacity="0.95"/>
    <rect x="760" y="817" width="50"  height="6" rx="3" fill="#FFFFFF" opacity="0.78"/>
  </g>
</svg>
